<?xml version="1.0" encoding="utf-8"?>
<svg viewBox="0 0 24 24" xmlns="http://www.w3.org/2000/svg">
  <path d="M0 0h24v24H0z" fill="none"/>
  <path d="M 15 21 L 17 21 L 17 19 L 15 19 L 15 21 Z M 19 9 L 21 9 L 21 7 L 19 7 L 19 9 Z M 3 5 L 3 19 C 3 20.1 3.9 21 5 21 L 9 21 L 9 19 L 5 19 L 5 5 L 9 5 L 9 3 L 5 3 C 3.9 3 3 3.9 3 5 Z M 19 3 L 19 5 L 21 5 C 21 3.9 20.1 3 19 3 Z M 11 23 L 13 23 L 13 1 L 11 1 L 11 23 Z M 19 17 L 21 17 L 21 15 L 19 15 L 19 17 Z M 15 5 L 17 5 L 17 3 L 15 3 L 15 5 Z M 19 13 L 21 13 L 21 11 L 19 11 L 19 13 Z M 19 21 C 20.1 21 21 20.1 21 19 L 19 19 L 19 21 Z" transform="matrix(0, 1, -1, 0, 24, 0)"/>
</svg>